<?xml version="1.0" standalone="no"?>
<!DOCTYPE svg PUBLIC "-//W3C//DTD SVG 20010904//EN"
 "http://www.w3.org/TR/2001/REC-SVG-20010904/DTD/svg10.dtd">
<svg version="1.0" xmlns="http://www.w3.org/2000/svg"
 width="1024.000000pt" height="1024.000000pt" viewBox="111 107 802 802"
 preserveAspectRatio="xMidYMid meet">

<g transform="translate(0.000000,1024.000000) scale(0.100000,-0.100000)"
fill="#000000" stroke="none">
<path d="M4815 9084 c-521 -53 -999 -220 -1389 -484 -436 -295 -819 -760
-1014 -1230 -83 -199 -90 -254 -38 -306 29 -29 41 -34 81 -34 66 0 96 35 146
170 116 312 320 621 584 885 326 326 714 545 1195 674 211 56 437 84 695 85
298 1 518 -29 793 -109 342 -99 699 -287 955 -501 48 -41 99 -77 112 -80 72
-18 155 42 155 112 0 57 -23 87 -147 187 -406 326 -871 523 -1453 614 -91 14
-580 26 -675 17z"/>
<path d="M4850 8594 c-351 -42 -622 -119 -895 -253 -236 -117 -413 -243 -600
-428 -234 -231 -382 -454 -588 -891 -32 -68 -86 -164 -119 -215 -75 -112 -233
-273 -345 -351 -69 -48 -83 -63 -89 -91 -7 -40 9 -96 36 -120 31 -28 99 -31
147 -6 74 37 200 140 293 238 126 134 216 272 336 520 150 311 224 430 380
613 319 376 760 622 1274 709 569 97 1117 -1 1592 -285 391 -233 681 -541 901
-954 111 -210 187 -437 242 -723 58 -308 85 -401 150 -527 81 -152 273 -293
402 -294 49 -1 57 2 84 31 75 85 40 164 -95 212 -157 55 -228 186 -292 536
-68 380 -140 608 -276 880 -326 652 -957 1155 -1674 1334 -202 51 -308 63
-574 66 -140 2 -271 1 -290 -1z"/>
<path d="M4975 8114 c-282 -28 -413 -55 -589 -120 -152 -57 -239 -98 -351
-163 -338 -198 -581 -474 -755 -856 -178 -391 -314 -596 -516 -778 -144 -129
-353 -255 -511 -308 -107 -35 -150 -99 -118 -174 16 -39 67 -75 107 -75 71 0
329 117 480 219 334 225 571 531 766 988 137 321 337 559 627 748 214 140 474
232 749 266 143 17 442 7 576 -21 300 -61 598 -202 820 -388 239 -200 411
-428 529 -703 64 -150 110 -307 166 -564 24 -116 59 -253 76 -305 96 -292 265
-528 483 -675 l88 -60 -252 -3 -253 -2 -34 27 c-61 49 -69 53 -100 57 -84 9
-133 -56 -133 -179 0 -92 24 -145 75 -169 48 -23 95 -15 141 26 l36 32 507 7
c278 5 524 11 546 14 105 15 164 110 121 194 -23 43 -59 61 -158 77 -369 60
-659 289 -802 636 -42 101 -74 220 -121 445 -58 278 -116 454 -217 657 -147
293 -357 545 -619 741 -286 213 -589 338 -939 389 -108 16 -353 27 -425 20z"/>
<path d="M4855 7614 c-187 -28 -302 -63 -462 -139 -334 -159 -549 -391 -724
-782 -89 -197 -158 -332 -226 -438 -277 -429 -720 -792 -1182 -969 -47 -18
-108 -38 -136 -45 -84 -21 -104 -32 -125 -66 -11 -18 -20 -48 -20 -66 0 -38
29 -93 57 -107 15 -8 664 -22 1003 -22 84 0 86 -1 139 -40 42 -32 62 -40 95
-40 85 0 116 48 116 180 0 104 -14 141 -62 166 -42 22 -97 13 -144 -22 l-37
-29 -264 -5 c-145 -3 -263 -4 -263 -4 0 1 53 33 118 72 231 138 411 281 595
472 243 252 388 479 568 890 35 80 90 186 123 235 173 260 463 444 804 512
120 23 384 23 504 0 423 -84 785 -351 963 -712 70 -141 112 -266 185 -545 59
-225 115 -402 150 -471 54 -106 165 -131 213 -49 25 42 21 92 -19 197 -19 53
-53 163 -75 247 -22 83 -56 211 -76 285 -93 351 -231 615 -428 820 -309 322
-713 493 -1158 490 -78 -1 -182 -7 -232 -15z"/>
<path d="M5063 7090 c-22 -10 -44 -29 -51 -44 -9 -21 -12 -429 -12 -1852 0
-2024 -5 -1870 65 -1900 65 -27 130 -9 153 41 9 20 12 459 12 1858 l0 1833
-27 32 c-37 44 -88 56 -140 32z"/>
<path d="M4610 6549 c-19 -4 -47 -21 -62 -38 l-28 -31 0 -1325 c0 -1452 -3
-1377 59 -1409 74 -39 148 -8 170 70 13 46 15 2550 2 2627 -13 78 -70 121
-141 106z"/>
<path d="M5568 6373 c-38 -6 -75 -44 -88 -91 -17 -64 -9 -2249 8 -2280 34 -59
126 -80 177 -40 57 45 55 -8 54 1195 0 832 -3 1117 -12 1142 -19 54 -74 83
-139 74z"/>
<path d="M4102 5968 c-12 -6 -32 -27 -45 -47 l-22 -36 -3 -735 c-2 -404 -1
-748 3 -765 14 -77 101 -122 171 -89 67 32 64 -8 64 843 l0 769 -29 30 c-40
39 -94 51 -139 30z"/>
<path d="M6033 5815 c-65 -28 -63 -7 -63 -709 0 -471 3 -642 12 -661 33 -73
173 -73 206 0 9 19 12 191 12 664 l0 638 -22 28 c-21 26 -74 55 -100 55 -7 -1
-27 -7 -45 -15z"/>
<path d="M3623 5580 c-63 -38 -63 -38 -63 -475 0 -442 1 -449 65 -479 42 -20
78 -20 115 -1 60 31 60 34 60 481 0 391 -1 408 -20 439 -33 54 -102 69 -157
35z"/>
<path d="M6511 5487 c-19 -7 -44 -25 -55 -40 -20 -28 -21 -39 -21 -362 l0
-334 28 -29 c54 -56 148 -46 184 20 16 30 18 62 18 343 0 238 -3 317 -14 342
-23 55 -81 80 -140 60z"/>
<path d="M2884 4766 c-77 -34 -344 -118 -500 -159 -94 -25 -180 -50 -191 -56
-22 -11 -53 -68 -53 -96 0 -32 33 -86 61 -100 43 -23 91 -18 259 24 159 41
456 139 522 172 71 36 97 105 66 174 -23 51 -99 69 -164 41z"/>
<path d="M6824 4607 c-64 -37 -199 -245 -285 -436 -36 -81 -72 -188 -185 -545
-92 -293 -228 -511 -455 -732 -255 -246 -513 -382 -959 -504 -232 -64 -271
-78 -395 -148 -233 -131 -560 -285 -780 -367 -125 -46 -152 -65 -165 -115 -13
-49 4 -96 46 -129 23 -18 38 -22 75 -19 72 7 412 149 674 281 396 200 402 203
575 251 353 97 554 183 789 334 131 84 196 136 315 251 124 121 188 198 276
332 122 185 195 351 280 639 91 305 186 523 286 653 94 122 102 171 39 234
-26 26 -41 33 -71 33 -22 -1 -48 -6 -60 -13z"/>
<path d="M7415 4567 c-107 -36 -213 -117 -293 -224 -100 -133 -174 -314 -248
-608 -101 -399 -190 -620 -344 -851 -166 -248 -366 -440 -645 -619 -222 -143
-468 -250 -765 -334 -175 -50 -298 -97 -405 -155 -44 -23 -165 -88 -270 -143
-222 -117 -255 -143 -255 -202 0 -57 48 -110 106 -118 35 -4 57 4 190 71 82
41 210 109 284 150 138 77 213 105 483 180 765 214 1413 759 1687 1421 54 131
98 268 155 486 116 443 206 623 347 693 84 42 163 33 347 -39 112 -43 150 -45
192 -7 23 21 32 39 36 73 11 95 -31 127 -252 199 -117 38 -278 50 -350 27z"/>
<path d="M3420 4451 c-14 -5 -79 -33 -145 -64 -249 -115 -639 -246 -885 -297
-58 -12 -116 -27 -129 -33 -40 -19 -66 -63 -65 -108 2 -53 30 -90 82 -109 38
-13 50 -12 169 14 324 72 661 187 939 321 151 73 174 95 174 164 0 55 -20 88
-66 107 -37 15 -38 16 -74 5z"/>
<path d="M3829 4104 c-140 -75 -458 -229 -557 -268 -219 -88 -507 -177 -727
-227 -71 -16 -143 -34 -158 -40 -45 -19 -67 -55 -67 -111 0 -43 4 -54 34 -84
46 -46 84 -45 289 6 410 101 752 228 1097 407 231 119 295 162 310 207 15 47
0 96 -41 131 -44 37 -82 32 -180 -21z"/>
<path d="M7514 4030 c-38 -15 -74 -68 -74 -109 0 -43 32 -90 124 -180 30 -30
72 -79 93 -110 21 -30 53 -70 71 -89 30 -32 36 -34 83 -30 83 8 124 67 99 143
-15 45 -84 139 -190 258 -105 118 -146 141 -206 117z"/>
<path d="M5984 3876 c-41 -18 -69 -56 -90 -119 -103 -313 -350 -589 -674 -752
-120 -60 -236 -99 -460 -154 -186 -46 -291 -86 -370 -141 -46 -32 -320 -171
-447 -226 -190 -83 -287 -120 -526 -199 -139 -46 -226 -80 -242 -95 -64 -61
-27 -170 66 -193 44 -11 307 69 589 180 158 62 348 151 515 241 266 143 279
148 475 196 340 82 543 171 765 336 197 146 348 326 460 550 105 208 119 285
63 344 -38 40 -80 51 -124 32z"/>
<path d="M3980 3623 c-351 -204 -847 -397 -1265 -492 -139 -31 -170 -47 -191
-97 -31 -73 29 -164 108 -164 13 0 123 25 243 55 365 90 675 205 990 365 203
103 311 167 340 202 41 49 28 134 -27 172 -43 30 -95 19 -198 -41z"/>
<path d="M7333 3494 c-45 -22 -55 -42 -95 -184 -123 -431 -339 -804 -637
-1100 -369 -367 -823 -617 -1361 -750 -109 -27 -133 -36 -160 -65 -48 -51 -27
-151 36 -175 91 -35 406 47 729 190 364 160 672 375 945 656 198 205 342 404
460 635 159 312 271 673 231 748 -15 27 -69 61 -96 61 -11 0 -34 -8 -52 -16z"/>
<path d="M4299 3232 c-423 -254 -772 -402 -1279 -543 -188 -52 -203 -59 -224
-104 -31 -64 -2 -138 65 -165 35 -15 86 -5 299 56 327 93 592 194 845 321 219
109 495 273 529 313 62 74 6 190 -92 190 -18 0 -72 -26 -143 -68z"/>
<path d="M7539 2915 c-36 -20 -49 -42 -114 -201 -31 -76 -77 -177 -101 -222
-58 -110 -60 -156 -9 -201 29 -25 44 -31 83 -31 40 0 53 5 74 28 24 25 133
247 193 393 49 120 44 192 -17 229 -38 23 -73 25 -109 5z"/>
</g>
</svg>
