<?xml version="1.0" standalone="no"?>
<!DOCTYPE svg PUBLIC "-//W3C//DTD SVG 20010904//EN"
 "http://www.w3.org/TR/2001/REC-SVG-20010904/DTD/svg10.dtd">
<svg version="1.0" xmlns="http://www.w3.org/2000/svg"
 width="551.000000pt" height="567.000000pt" viewBox="0 0 551.000000 567.000000"
 preserveAspectRatio="xMidYMid meet">

<g transform="translate(0.000000,567.000000) scale(0.100000,-0.100000)"
fill="#000000" stroke="none">
<path d="M3055 5535 c5 -69 3 -100 -9 -134 -9 -24 -16 -69 -16 -100 l0 -56
-27 40 c-24 34 -28 50 -27 108 0 69 -9 87 -20 41 -11 -42 -20 -19 -18 44 2 46
0 53 -9 39 -6 -11 -9 -32 -7 -48 6 -39 -6 -24 -20 26 -6 22 -18 49 -26 60 -14
19 -15 18 -16 -21 0 -33 8 -51 39 -90 47 -60 57 -107 24 -112 -33 -5 -29 -17
18 -54 59 -48 82 -97 87 -194 3 -59 0 -97 -13 -140 -10 -32 -21 -100 -25 -149
-7 -84 -46 -235 -61 -235 -3 0 -9 33 -12 73 -3 39 -13 97 -22 127 -27 97 -28
122 -6 194 41 133 15 229 -39 142 -23 -38 -28 -74 -16 -125 6 -23 5 -31 -3
-27 -15 10 -41 103 -41 148 0 37 28 106 55 138 18 21 34 85 28 110 -6 22 -23
17 -23 -7 0 -21 -83 -192 -93 -193 -5 0 -5 20 -2 44 7 47 -11 156 -26 156 -5
0 -6 -40 -3 -100 4 -55 5 -100 2 -100 -3 0 -23 25 -43 55 -42 61 -45 83 -31
235 9 105 -6 90 -28 -29 -9 -46 -16 -85 -16 -87 0 -15 -27 3 -71 46 -58 57
-89 68 -65 23 17 -33 49 -63 94 -89 19 -11 48 -45 71 -84 22 -36 51 -76 65
-89 40 -38 34 -58 -10 -31 -57 36 -53 12 8 -45 79 -74 103 -126 155 -330 10
-41 14 -94 11 -170 -3 -105 -5 -113 -38 -168 -21 -35 -41 -56 -50 -55 -8 2
-35 33 -60 70 -25 36 -64 91 -87 121 -24 30 -43 65 -43 79 0 13 18 76 40 139
22 63 40 126 40 142 0 52 -33 25 -56 -45 l-14 -43 6 62 c3 34 3 76 -1 92 -7
33 -29 41 -39 15 -17 -45 4 -191 26 -178 7 4 8 -2 3 -17 -13 -42 -23 -43 -39
-4 -23 55 -31 36 -12 -28 19 -67 20 -78 3 -101 -12 -16 -18 -12 -72 41 -84 83
-118 154 -119 252 -2 124 6 145 68 180 39 21 57 39 65 62 23 65 8 65 -62 2
-29 -27 -45 -39 -37 -28 32 40 45 85 41 133 -1 6 -7 12 -15 12 -24 0 -53 -61
-59 -122 -9 -99 -30 -100 -43 -2 -8 70 1 106 42 159 25 34 34 55 34 84 0 80
-40 53 -48 -32 -3 -29 -11 -61 -18 -72 -13 -17 -14 -14 -14 37 0 96 -32 141
-58 83 -12 -25 -6 -81 9 -101 10 -13 24 -124 16 -124 -4 0 -18 22 -32 49 -27
54 -66 101 -84 101 -26 0 -10 -34 60 -130 68 -94 79 -127 79 -232 0 -100 2
-99 -69 -54 -46 29 -85 75 -122 143 -32 58 -51 68 -43 21 4 -18 11 -37 15 -42
19 -21 8 -26 -22 -11 -52 28 -43 9 18 -36 32 -24 74 -58 93 -76 19 -18 39 -33
43 -33 12 0 93 -86 137 -145 21 -27 86 -99 144 -160 105 -108 174 -205 208
-295 24 -61 23 -69 -16 -190 -19 -58 -37 -116 -40 -130 -3 -14 -12 -34 -20
-45 -14 -19 -15 -19 -48 16 -18 19 -49 71 -67 115 -38 85 -101 194 -185 317
l-53 77 -6 103 c-3 72 -11 116 -26 150 -31 71 -45 53 -38 -51 l5 -84 -34 58
c-20 35 -34 73 -34 93 0 19 -9 54 -21 78 -17 36 -25 43 -50 43 -24 0 -29 -4
-29 -25 0 -41 28 -97 69 -140 45 -47 115 -159 109 -175 -2 -6 -37 10 -83 37
l-79 48 -68 120 c-37 66 -68 127 -68 136 0 8 9 52 21 98 11 46 18 92 15 104
-3 11 2 51 9 89 8 38 15 72 15 76 0 18 -29 -39 -39 -76 -7 -23 -16 -42 -21
-42 -13 0 -45 65 -64 131 -9 31 -23 64 -31 75 -13 17 -14 16 -8 -16 3 -19 14
-57 24 -85 10 -27 14 -51 9 -53 -5 -2 -29 8 -53 22 -24 14 -49 26 -56 26 -25
0 2 -21 69 -55 62 -31 110 -76 110 -104 0 -6 -7 -8 -15 -5 -13 5 -15 -7 -15
-75 0 -83 -12 -104 -30 -55 -6 14 -10 43 -10 64 0 22 -5 51 -12 65 -10 22 -16
25 -37 20 -34 -9 -34 -7 -18 -54 l15 -41 -31 26 c-41 34 -56 18 -31 -33 13
-25 34 -46 62 -62 49 -26 97 -87 142 -178 39 -80 39 -103 2 -103 -49 0 -146
30 -193 61 -38 24 -52 42 -76 97 -59 131 -67 170 -54 235 19 94 -19 175 -42
87 -6 -23 -4 -47 7 -81 9 -26 16 -55 16 -63 0 -26 -25 -18 -51 16 -28 37 -89
148 -89 161 0 14 -40 67 -51 67 -29 0 11 -96 55 -132 34 -28 -3 -22 -46 7 -20
14 -42 25 -49 25 -18 0 30 -49 67 -68 43 -23 162 -155 170 -189 4 -16 15 -46
25 -68 27 -59 25 -63 -31 -63 -28 -1 -54 -3 -59 -7 -6 -3 -26 9 -46 26 -41 37
-58 31 -28 -9 32 -43 61 -54 96 -36 33 17 67 12 106 -15 68 -48 161 -90 221
-101 71 -12 179 -45 223 -67 51 -26 106 -84 137 -144 17 -33 25 -59 18 -59 -6
0 -35 11 -64 25 -30 14 -76 30 -103 35 -27 5 -78 25 -114 45 -72 39 -110 43
-115 10 -4 -27 50 -81 89 -89 17 -3 56 -6 85 -6 43 0 73 -9 156 -48 115 -54
156 -85 180 -134 19 -39 58 -134 58 -142 0 -12 -22 -6 -48 12 -15 10 -56 29
-92 42 -36 13 -75 32 -87 43 l-23 20 0 -20 c0 -28 51 -71 145 -123 46 -26 107
-71 150 -114 l73 -71 21 -95 c42 -183 56 -300 54 -435 -3 -137 -21 -256 -39
-262 -6 -2 -57 41 -113 96 -101 99 -138 157 -169 263 -6 18 -22 65 -37 103
-15 39 -33 95 -41 125 -23 93 -44 148 -100 271 -30 65 -54 129 -54 143 0 14
10 41 21 61 27 45 21 102 -14 144 l-25 30 -20 -22 c-12 -12 -24 -41 -28 -64
-5 -34 -1 -50 22 -90 25 -46 28 -83 6 -83 -24 0 -94 91 -145 189 -32 60 -71
124 -88 142 -40 43 -57 77 -65 130 -9 58 -28 95 -60 116 -25 16 -27 16 -40 -2
-26 -35 -17 -77 27 -130 22 -27 36 -51 30 -53 -5 -2 -47 16 -92 39 -100 52
-119 79 -154 218 -25 100 -63 193 -85 206 -18 11 -10 -32 20 -112 17 -42 30
-84 30 -92 0 -9 -20 5 -48 32 -55 54 -123 177 -145 259 -16 62 -36 104 -37 77
0 -9 7 -37 14 -64 l15 -48 -40 39 c-55 54 -51 20 6 -47 25 -29 45 -57 45 -61
0 -5 11 -26 25 -46 50 -73 16 -79 -47 -8 -29 32 -38 37 -38 22 0 -17 -3 -16
-25 8 -13 14 -34 26 -45 26 -21 0 -21 -1 -4 -29 19 -32 28 -37 119 -72 74 -29
76 -30 158 -103 69 -62 86 -93 45 -80 -13 3 -35 15 -50 25 -49 35 -96 19 -55
-18 29 -26 54 -39 97 -47 36 -7 80 -41 80 -63 0 -21 -126 -17 -203 7 -47 15
-71 28 -85 48 -22 32 -52 96 -52 110 0 17 -51 73 -61 66 -16 -9 -10 -37 21
-99 17 -33 25 -51 18 -41 -36 54 -111 136 -123 136 -20 0 -19 -40 1 -68 8 -12
32 -31 52 -43 33 -18 27 -19 -18 -1 -12 4 -11 1 2 -14 9 -11 53 -37 98 -59 44
-21 80 -42 80 -46 0 -10 -40 -19 -91 -19 -61 0 -125 41 -168 109 -31 48 -51
64 -51 40 0 -6 9 -24 21 -40 25 -36 11 -38 -21 -4 -16 17 -34 25 -57 25 -69 0
-19 -53 71 -75 49 -12 49 -13 16 -15 -79 -5 -85 -18 -9 -19 48 -1 82 -6 95
-15 18 -14 18 -15 -10 -26 -16 -6 -27 -13 -24 -15 2 -2 56 0 119 6 134 12 121
12 324 2 l160 -8 99 -60 98 -60 58 -110 c42 -79 77 -130 126 -182 63 -67 122
-158 110 -170 -3 -3 -20 4 -38 14 -18 11 -68 33 -111 48 -89 32 -137 73 -207
178 -25 36 -48 67 -52 67 -10 0 17 -87 33 -106 6 -8 10 -17 7 -20 -3 -2 -28
23 -56 58 l-51 62 6 61 c7 74 -10 138 -35 133 -13 -3 -17 -15 -17 -53 0 -28 4
-64 8 -82 8 -31 7 -30 -53 28 -46 45 -65 58 -74 49 -8 -8 -7 -18 6 -40 16 -29
16 -30 -2 -30 -13 0 -17 -5 -13 -19 6 -22 91 -71 124 -71 22 0 119 -89 119
-109 0 -13 -61 -22 -101 -15 -137 23 -320 145 -347 232 -14 42 -71 102 -98
102 -8 0 -19 -11 -26 -25 -17 -39 5 -80 61 -108 49 -26 174 -141 164 -151 -27
-27 -205 31 -268 87 -24 20 -64 69 -89 107 -26 39 -51 70 -56 70 -6 0 -10 -2
-10 -4 0 -13 44 -104 57 -119 9 -9 14 -20 10 -23 -7 -7 -39 10 -94 52 -47 36
-73 43 -73 20 0 -26 55 -72 105 -90 28 -9 86 -35 130 -56 44 -22 92 -44 107
-50 16 -5 28 -13 28 -18 0 -15 -116 -45 -151 -39 -119 18 -185 39 -219 72 -63
60 -141 90 -177 67 -9 -6 -5 -16 15 -38 22 -24 42 -34 93 -43 98 -19 99 -27 7
-35 -100 -8 -128 -26 -88 -56 14 -11 40 -20 58 -20 33 0 105 31 117 50 9 15
57 12 133 -7 l67 -17 -52 -7 c-86 -11 -151 -60 -124 -93 30 -35 101 -14 160
48 27 28 55 42 132 66 121 37 164 37 311 1 65 -16 148 -32 185 -36 100 -10
142 -23 190 -60 23 -18 73 -45 110 -61 83 -34 140 -70 166 -106 21 -28 60
-201 46 -206 -4 -2 -24 4 -44 12 -20 9 -66 19 -101 22 -77 8 -106 28 -195 134
-51 62 -73 79 -142 112 -81 39 -83 40 -134 28 -53 -13 -62 -12 -100 16 -33 24
-28 0 7 -32 67 -64 174 -94 229 -65 25 14 77 -14 91 -49 11 -27 67 -87 119
-128 14 -11 21 -24 17 -30 -10 -17 -70 -15 -113 3 -50 21 -64 4 -22 -26 30
-21 47 -24 169 -29 184 -7 202 -18 277 -172 18 -37 33 -72 33 -79 0 -7 -33
-10 -108 -7 l-109 3 -69 50 c-38 28 -98 68 -134 90 -37 22 -106 81 -160 135
-92 94 -135 128 -148 116 -3 -4 10 -23 29 -44 20 -20 51 -57 70 -82 18 -25 42
-51 51 -58 23 -17 23 -32 1 -32 -55 0 -177 65 -248 131 -27 26 -79 69 -114 96
-35 26 -74 56 -87 66 -26 21 -74 31 -92 19 -29 -19 26 -82 72 -82 25 0 116
-33 116 -42 0 -7 -21 -5 -71 8 -8 2 -24 -2 -35 -10 -18 -14 -18 -15 9 -25 16
-6 54 -11 86 -11 51 0 61 -3 86 -30 l29 -30 -42 0 c-22 0 -43 -4 -46 -9 -6
-10 54 -37 102 -46 18 -4 54 -19 80 -33 79 -44 91 -65 46 -82 -52 -20 -102
-12 -161 26 -36 23 -81 41 -127 50 -54 12 -169 62 -204 89 -2 2 -4 30 -6 64
-3 65 -18 91 -68 117 -46 24 -68 19 -68 -16 0 -68 28 -102 103 -130 15 -5 27
-16 27 -23 0 -15 41 -54 83 -81 44 -27 23 -39 -63 -34 -66 4 -85 9 -127 36
-27 17 -69 54 -93 82 -24 27 -47 50 -51 50 -14 0 12 -57 37 -81 33 -30 30 -39
-10 -39 -24 0 -39 7 -50 22 -33 47 -99 108 -117 108 -41 0 -6 -54 66 -103 50
-34 30 -35 -34 -1 -31 16 -62 24 -82 22 l-32 -3 27 -27 c31 -30 59 -36 210
-47 126 -9 175 -36 99 -56 -14 -3 -38 -15 -51 -26 -16 -12 -40 -19 -67 -19
-57 0 -93 -27 -76 -58 15 -29 65 -29 106 -2 17 12 57 33 90 49 33 15 66 36 74
45 7 9 28 16 45 16 l31 -1 -36 -32 c-19 -17 -50 -45 -69 -61 -34 -30 -27 -51
9 -24 134 98 166 118 208 124 64 9 149 -11 215 -51 32 -20 69 -35 87 -35 41 0
39 -13 -6 -47 -60 -44 -63 -47 -88 -73 -31 -31 -32 -50 -2 -50 26 1 68 36 126
107 43 53 101 93 172 118 40 14 43 14 99 -16 31 -17 74 -48 96 -70 37 -38 37
-39 18 -53 -10 -8 -55 -27 -99 -41 -152 -49 -229 -102 -129 -88 60 8 54 -3
-29 -57 -70 -46 -97 -49 -189 -20 -74 23 -68 22 -68 12 0 -5 26 -21 57 -37 54
-26 56 -28 33 -37 -58 -21 -207 41 -267 112 -41 47 -76 56 -131 34 l-41 -16
14 -29 c29 -55 88 -72 155 -45 10 4 43 -11 85 -38 l70 -45 -69 -32 c-59 -28
-86 -34 -179 -41 -123 -8 -153 -18 -57 -18 l63 0 -42 -30 c-41 -30 -46 -50
-13 -50 30 0 96 27 159 65 112 66 304 127 290 91 -15 -39 -60 -97 -85 -110
-28 -14 -72 -81 -72 -110 0 -16 14 -20 55 -17 32 3 73 55 80 103 14 93 74 168
178 224 28 15 29 15 22 -8 -4 -13 -20 -34 -36 -46 -38 -31 -59 -72 -59 -117 0
-45 25 -47 64 -6 21 22 30 43 35 88 12 96 72 187 145 217 52 21 164 27 306 16
153 -12 178 -22 256 -93 101 -92 143 -167 185 -327 26 -99 30 -126 25 -192 -4
-42 -15 -105 -25 -140 -21 -70 -26 -98 -41 -213 -14 -110 -33 -161 -84 -226
-89 -113 -246 -210 -451 -277 -66 -22 -151 -45 -190 -51 -38 -7 -85 -17 -103
-22 l-34 -11 59 -29 58 -28 110 14 c61 8 127 17 148 21 20 3 37 2 37 -3 0 -4
-27 -26 -60 -47 -33 -22 -60 -43 -60 -48 0 -14 43 -26 60 -17 204 106 345 160
452 173 95 11 69 -26 -110 -161 -63 -47 -111 -87 -109 -90 15 -14 76 0 188 45
159 64 245 109 316 167 42 34 61 44 77 39 11 -4 64 -42 118 -85 178 -145 312
-212 216 -108 -130 139 -168 183 -168 192 0 20 128 -1 198 -34 161 -75 314
-133 335 -126 6 2 -18 20 -54 41 -83 50 -140 88 -136 92 1 2 68 -10 147 -26
80 -16 162 -30 184 -30 35 0 116 35 116 50 0 4 -37 15 -82 24 -428 90 -681
278 -739 546 -19 87 -7 243 24 318 51 124 200 298 308 360 75 43 123 59 232
77 95 16 207 49 242 70 36 23 93 26 172 11 133 -25 161 -43 228 -147 53 -84
148 -144 170 -109 12 19 -24 59 -74 82 -27 12 -54 32 -59 43 -6 12 -28 43 -51
69 -56 65 -53 83 8 52 15 -8 54 -22 87 -30 32 -8 86 -24 118 -35 33 -12 82
-22 110 -23 34 -2 62 -10 85 -25 36 -25 80 -29 112 -13 46 25 1 46 -116 54
-82 6 -177 29 -275 67 -73 29 -79 36 -44 49 16 6 43 18 59 27 61 31 81 32 160
10 57 -15 78 -18 87 -9 9 9 2 15 -28 27 -21 9 -48 19 -58 23 -17 7 -14 11 20
32 51 30 115 36 190 16 34 -9 71 -16 83 -16 21 0 91 55 91 71 0 14 -104 10
-150 -6 -46 -16 -90 -20 -75 -7 6 5 50 26 99 48 92 40 156 89 156 118 0 9 -8
16 -19 16 -19 0 -48 -21 -112 -82 -33 -30 -156 -95 -164 -86 -7 7 61 97 91
121 58 44 84 80 84 114 0 41 -18 43 -57 6 -16 -16 -37 -27 -46 -25 -12 2 -17
-3 -17 -20 0 -67 -51 -144 -140 -209 -43 -32 -203 -109 -226 -109 -12 0 -7 10
19 39 19 22 41 50 48 63 14 27 56 68 69 68 12 0 82 41 77 46 -1 2 -25 -3 -51
-11 l-48 -15 41 45 c37 40 41 50 41 94 0 27 -4 52 -9 55 -11 7 -87 -48 -100
-73 -6 -11 -11 -35 -11 -54 0 -19 -3 -48 -6 -64 -8 -41 -80 -135 -137 -179
l-48 -37 -140 6 c-135 6 -171 12 -153 26 5 3 30 31 56 62 39 46 56 59 94 68
53 14 114 67 114 100 0 30 -56 28 -104 -4 l-36 -25 20 40 c11 21 20 47 20 57
0 41 -60 -48 -116 -170 -19 -42 -106 -125 -174 -165 -38 -23 -59 -27 -142 -30
-87 -4 -98 -2 -98 12 0 24 68 161 89 180 23 21 156 66 193 66 65 0 118 40 118
89 0 44 -66 29 -124 -28 -57 -55 -181 -86 -133 -34 41 46 127 190 127 212 0
23 -4 19 -34 -25 -30 -45 -38 -50 -64 -46 -38 5 -67 -30 -82 -102 -7 -34 -20
-62 -36 -77 -14 -13 -44 -56 -65 -95 -67 -122 -86 -137 -264 -204 -81 -31
-137 -71 -218 -153 -37 -38 -69 -68 -71 -66 -2 2 -10 24 -19 49 -9 25 -23 65
-32 90 -14 36 -16 68 -12 157 4 97 8 120 31 166 37 72 140 176 234 234 l77 48
145 5 c137 5 190 16 190 39 0 5 -19 6 -42 4 -24 -3 -70 3 -103 11 -32 9 -81
16 -107 16 -50 0 -146 -31 -190 -61 -14 -11 -30 -19 -35 -19 -4 -1 -42 -32
-83 -70 -105 -98 -120 -93 -79 31 34 101 69 142 173 205 85 51 161 80 258 100
81 17 88 17 149 0 46 -12 84 -32 130 -67 35 -27 74 -57 86 -65 32 -23 165 -75
172 -68 8 8 -35 40 -84 63 -49 23 -127 89 -119 102 9 15 191 10 257 -7 79 -20
101 -32 165 -91 84 -76 152 -104 165 -69 10 26 -23 54 -93 81 -38 15 -80 35
-92 46 l-23 18 41 1 c69 0 171 -37 217 -79 23 -21 53 -45 67 -54 53 -37 133
-9 95 33 -17 19 -95 50 -126 50 -10 0 -21 5 -25 11 -5 8 0 10 17 6 13 -3 58
-9 99 -13 l75 -7 -24 27 c-20 21 -33 26 -73 26 -27 0 -68 -5 -91 -11 -36 -9
-50 -7 -92 12 -32 13 -82 24 -137 28 -90 7 -120 17 -78 28 14 4 74 31 134 61
107 53 111 54 170 48 34 -4 91 -13 128 -20 37 -7 65 -10 63 -6 -6 9 19 20 46
20 10 0 19 -7 19 -15 0 -10 -10 -15 -27 -15 l-28 0 30 -20 c59 -39 155 -50
142 -15 -3 7 5 17 19 24 35 15 30 37 -15 60 -19 10 -43 10 -121 0 -94 -11
-101 -11 -158 10 -45 17 -76 22 -121 19 -34 -1 -61 0 -61 4 0 3 21 20 48 36
26 16 76 52 111 81 46 37 82 57 135 72 81 24 136 50 156 74 24 29 2 27 -72 -8
-80 -39 -113 -47 -119 -32 -2 6 24 24 59 41 68 33 106 66 117 102 13 45 -40
20 -101 -47 -43 -47 -68 -52 -39 -8 23 36 36 88 29 120 -7 35 -15 34 -43 -4
-14 -19 -25 -51 -28 -87 -7 -72 -24 -107 -77 -156 -52 -48 -145 -110 -153
-102 -4 3 10 39 30 79 55 110 48 187 -12 123 -26 -28 -51 -104 -51 -157 0 -56
-12 -80 -72 -138 -58 -58 -143 -106 -204 -116 l-39 -6 70 65 c55 52 65 66 49
66 -24 0 -72 -30 -124 -78 -45 -42 -62 -46 -184 -39 -103 6 -166 22 -166 43 0
17 77 84 114 99 17 7 54 16 81 19 28 4 79 20 115 36 36 16 85 34 109 40 55 14
110 69 86 86 -8 6 -15 19 -15 28 0 11 -9 16 -26 16 -18 0 -44 -18 -87 -61 -34
-33 -77 -67 -97 -76 -35 -14 -180 -46 -186 -40 -2 2 15 22 36 45 41 43 56 80
20 47 -19 -17 -19 -17 -13 19 4 27 2 37 -11 42 -26 10 -44 -14 -66 -87 -37
-122 -114 -189 -219 -189 -25 0 -72 -6 -104 -14 -70 -16 -70 -20 10 100 98
144 114 174 95 174 -9 0 -117 -134 -161 -200 -38 -55 -73 -90 -113 -111 -50
-25 -68 -24 -68 4 0 27 40 146 64 194 21 39 87 84 175 118 37 14 98 45 137 69
132 84 191 107 364 140 84 15 88 14 164 -45 58 -46 97 -50 141 -15 29 24 30
25 10 40 -27 21 -94 30 -128 17 -21 -8 -35 -7 -62 6 -19 9 -32 20 -29 24 2 4
26 15 53 24 44 14 52 14 97 -1 44 -15 51 -15 79 0 17 9 60 17 100 18 l70 3
-50 8 c-74 12 -81 15 -66 30 6 7 49 18 94 24 45 7 101 16 124 19 25 4 62 1 88
-6 46 -13 115 -7 115 10 0 6 -36 10 -79 10 -44 0 -82 4 -86 9 -9 16 50 50 106
62 66 14 94 35 34 25 -22 -3 -51 -9 -65 -12 l-25 -6 23 21 c13 11 20 25 17 31
-4 6 0 19 8 28 8 9 18 28 22 42 7 23 6 24 -9 11 -10 -8 -28 -35 -41 -60 -45
-90 -119 -145 -214 -160 -28 -4 -51 -7 -51 -6 0 1 22 16 49 33 60 37 92 79 70
93 -8 5 -18 9 -23 9 -10 0 -76 -66 -99 -99 -25 -38 -30 -19 -8 30 11 24 22 55
25 69 3 16 19 32 41 44 45 24 74 73 50 82 -17 7 -63 -20 -72 -42 -8 -21 -23
-17 -23 7 0 11 -4 17 -10 14 -5 -3 -10 -30 -10 -60 0 -75 -60 -191 -116 -222
-21 -13 -52 -23 -68 -23 l-29 0 47 50 c25 27 46 54 46 60 0 16 -27 12 -45 -7
-53 -52 -117 -96 -175 -118 -69 -26 -160 -49 -167 -41 -9 8 83 159 107 176 14
10 49 26 78 35 68 23 125 64 159 117 36 55 48 65 106 83 54 16 117 52 117 66
0 13 -3 12 -66 -16 -60 -26 -94 -32 -94 -15 0 6 12 34 27 63 15 29 26 55 25
59 -1 3 21 23 48 44 45 34 64 64 41 64 -12 0 -82 -57 -99 -81 -12 -17 -16 -18
-23 -8 -12 19 -11 96 0 104 14 8 23 -29 15 -62 -4 -15 -4 -25 0 -21 4 3 12 37
16 75 5 38 12 76 16 86 3 9 2 17 -4 17 -6 0 -13 -13 -17 -29 -3 -16 -13 -35
-20 -41 -12 -10 -17 -7 -25 15 -5 14 -10 31 -10 36 0 6 -4 7 -10 4 -14 -9 -12
-71 5 -135 19 -69 12 -105 -36 -206 -45 -96 -100 -150 -185 -183 -31 -12 -59
-19 -61 -17 -3 3 -2 18 2 34 4 22 21 39 58 64 29 18 52 38 52 43 1 6 9 25 18
43 27 49 0 41 -58 -18 -27 -27 -50 -48 -52 -46 -2 2 12 27 32 57 26 40 35 64
35 96 0 41 -2 43 -28 43 -29 0 -52 -29 -52 -68 -1 -16 -2 -16 -14 1 -7 9 -16
17 -20 17 -3 0 -6 -51 -6 -112 0 -107 -2 -116 -30 -168 -17 -30 -42 -79 -56
-107 -14 -29 -38 -62 -53 -73 -31 -21 -116 -60 -133 -60 -15 0 20 49 55 79 37
31 87 108 87 133 0 10 11 51 25 90 28 81 31 126 11 154 -15 19 -15 19 -38 -3
-20 -20 -23 -36 -28 -133 -6 -123 -13 -138 -102 -219 -27 -24 -64 -66 -83 -95
-19 -28 -50 -61 -68 -74 -37 -24 -197 -95 -203 -89 -7 7 56 235 94 342 53 147
76 198 96 214 9 7 16 20 16 28 0 23 -78 -38 -91 -72 -7 -16 -37 -82 -67 -145
-30 -63 -78 -180 -108 -260 -52 -143 -73 -197 -99 -255 -31 -69 -48 -113 -66
-170 -10 -34 -33 -83 -51 -110 -51 -79 -128 -168 -131 -153 -2 7 -21 65 -41
128 -36 113 -37 117 -26 195 21 161 75 339 132 438 22 38 56 103 75 145 72
160 101 209 206 349 58 77 103 160 93 170 -4 4 -29 -16 -55 -44 -26 -29 -50
-53 -54 -53 -3 0 3 19 13 43 13 30 17 55 13 80 -7 48 -19 54 -49 26 -28 -27
-32 -75 -8 -121 20 -38 13 -64 -26 -105 -57 -60 -58 -51 -19 129 10 48 19 107
19 130 0 50 25 109 65 156 25 29 29 31 40 16 13 -19 46 -15 78 9 20 14 41 97
28 110 -16 16 -85 -18 -108 -53 -32 -47 -86 -110 -95 -110 -5 0 -8 16 -8 35 0
50 43 129 101 187 56 56 64 85 22 82 -16 -1 -30 -3 -33 -4 -3 -1 -8 -2 -12 -1
-4 0 -13 -18 -19 -42 -7 -23 -23 -56 -36 -74 -13 -17 -23 -37 -23 -43 0 -6 -5
-8 -11 -4 -16 9 -3 97 22 154 11 25 40 64 65 87 24 23 44 47 44 54 0 14 -26
-5 -53 -38 -31 -39 -40 -29 -33 37 5 40 3 60 -4 60 -5 0 -10 -11 -10 -24 0
-14 -4 -28 -10 -31 -5 -3 -10 2 -10 12 0 10 -5 25 -11 33 -7 10 -8 -12 -4 -75z
m-2105 -2290 c0 -15 -48 -45 -72 -45 -15 0 -28 -4 -28 -10 0 -5 -5 -10 -11
-10 -22 0 5 22 54 45 62 28 57 26 57 20z m3736 -22 c-10 -10 -19 5 -10 18 6
11 8 11 12 0 2 -7 1 -15 -2 -18z m-3491 -523 c-3 -5 -15 -15 -26 -20 -16 -9
-19 -7 -19 10 0 15 7 20 26 20 14 0 22 -4 19 -10z"/>
<path d="M2530 5493 c0 -29 9 -65 26 -100 25 -50 41 -72 27 -38 -3 9 0 36 7
61 10 35 10 53 1 85 -10 34 -15 38 -27 28 -10 -8 -14 -8 -14 0 0 6 -4 11 -10
11 -5 0 -10 -21 -10 -47z"/>
<path d="M3495 5468 c-3 -7 -6 -51 -7 -98 l-3 -85 -21 80 -21 80 1 -147 c1
-125 -2 -150 -16 -164 -15 -16 -17 -13 -23 32 -3 27 -10 63 -14 79 l-9 30 -1
-29 c-1 -15 6 -55 15 -88 l15 -60 -27 -35 c-28 -37 -82 -75 -95 -67 -5 3 -6
-24 -2 -60 5 -57 3 -71 -24 -128 -17 -35 -46 -85 -67 -112 -20 -26 -36 -57
-36 -69 0 -12 15 -62 33 -112 35 -99 50 -89 23 16 -9 33 -16 64 -16 69 0 12
61 38 119 51 38 8 51 15 51 29 0 9 19 43 41 73 35 47 56 64 125 98 46 23 91
53 99 66 20 30 8 29 -63 -7 -124 -63 -123 -35 2 114 21 26 36 49 33 52 -7 7
-38 -23 -105 -100 l-42 -49 0 80 c0 91 0 91 123 177 37 26 67 54 67 62 0 26
-11 20 -121 -63 -23 -18 -45 -33 -49 -33 -4 0 -3 21 2 48 8 35 26 66 70 120
69 83 71 108 3 38 -41 -43 -45 -45 -45 -23 0 13 7 45 16 70 13 38 14 51 4 62
-15 18 -29 19 -35 3z m-65 -609 c-6 -22 -29 -60 -50 -83 -40 -43 -140 -106
-140 -87 0 5 4 12 9 15 25 16 71 120 77 173 7 65 22 95 68 137 l31 28 8 -71
c5 -45 4 -86 -3 -112z"/>
<path d="M1960 5341 c0 -34 11 -50 56 -81 l44 -29 0 39 c0 41 -17 90 -32 90
-4 0 -8 -10 -8 -22 l0 -21 -23 21 c-29 27 -37 28 -37 3z m80 -67 c0 -8 -4 -12
-10 -9 -5 3 -10 13 -10 21 0 8 5 12 10 9 6 -3 10 -13 10 -21z"/>
<path d="M2110 5230 c0 -22 21 -50 50 -65 32 -17 70 -20 70 -6 0 11 -67 71
-80 71 -4 0 -15 3 -24 6 -9 3 -16 1 -16 -6z"/>
<path d="M3860 5194 c-6 -14 -10 -47 -10 -74 0 -28 -6 -54 -14 -62 -7 -8 -21
-28 -29 -45 -9 -17 -35 -47 -58 -67 -53 -45 -48 -54 9 -15 36 24 50 28 78 23
55 -10 114 23 114 65 0 18 -53 13 -95 -9 -21 -11 -40 -18 -42 -16 -7 6 61 66
74 66 19 0 93 75 93 93 0 27 -27 20 -65 -18 -37 -37 -42 -35 -24 11 11 31 5
74 -11 74 -6 0 -15 -12 -20 -26z"/>
<path d="M3276 5114 c-9 -24 -7 -62 3 -69 15 -9 33 34 27 61 -7 27 -21 31 -30
8z"/>
<path d="M3641 5097 c-13 -16 -27 -77 -17 -77 17 0 84 41 89 54 11 27 -10 27
-42 0 l-31 -26 10 27 c12 32 8 42 -9 22z"/>
<path d="M1345 4980 c18 -34 47 -53 78 -48 21 3 20 5 -14 41 -21 20 -47 37
-58 37 -21 0 -21 -1 -6 -30z"/>
<path d="M3448 4549 c-46 -39 -48 -43 -48 -92 0 -38 -5 -56 -22 -74 -12 -13
-17 -23 -11 -23 6 0 16 7 23 15 7 8 40 28 75 44 67 32 95 61 95 98 0 29 -7 29
-38 1 l-23 -23 10 28 c15 38 14 67 -1 67 -7 0 -34 -18 -60 -41z"/>
<path d="M4570 4550 c-14 -10 -21 -22 -17 -26 4 -4 17 2 29 14 28 28 20 36
-12 12z"/>
<path d="M2447 4416 c-4 -10 -7 -39 -7 -66 0 -27 -4 -60 -10 -74 -6 -16 -6
-27 0 -31 6 -4 10 0 10 7 0 7 9 30 20 51 23 43 26 85 7 111 -13 18 -14 18 -20
2z"/>
<path d="M4800 4043 c-29 -11 -100 -64 -100 -75 0 -14 114 -2 141 15 54 33 19
83 -41 60z"/>
<path d="M4636 3908 c3 -4 15 -8 27 -8 12 0 40 -11 62 -25 46 -28 82 -31 111
-11 18 14 18 16 2 33 -15 14 -36 17 -112 18 -52 1 -93 -2 -90 -7z"/>
<path d="M1277 3743 c-4 -3 -7 -28 -7 -54 0 -45 3 -50 37 -74 48 -32 58 -32
73 4 17 43 10 61 -38 98 -45 34 -54 38 -65 26z"/>
<path d="M1320 3144 c-36 -16 -89 -70 -90 -93 0 -10 13 -12 54 -9 56 5 89 24
128 73 17 22 19 29 7 36 -21 13 -59 10 -99 -7z"/>
<path d="M4461 2741 c8 -13 19 -32 25 -42 23 -39 48 -59 76 -59 15 0 28 4 28
9 0 14 -60 71 -74 71 -8 0 -26 10 -41 22 l-28 21 14 -22z"/>
<path d="M1340 1045 c0 -24 3 -25 55 -25 l55 0 0 -150 0 -150 25 0 25 0 0 150
0 149 58 3 c50 3 57 6 60 26 3 22 3 22 -137 22 l-141 0 0 -25z"/>
<path d="M1650 895 l0 -175 25 0 c25 0 25 1 25 90 0 77 3 93 20 110 24 24 53
26 74 4 12 -12 16 -37 16 -110 l0 -94 26 0 26 0 -4 110 c-4 128 -13 145 -81
144 -23 0 -50 -3 -59 -8 -16 -7 -18 -2 -18 48 0 53 -1 56 -25 56 l-25 0 0
-175z"/>
<path d="M2190 895 l0 -175 25 0 25 0 1 133 0 132 47 -132 c41 -116 50 -133
69 -133 23 0 35 25 84 179 l24 75 5 -125 c5 -119 6 -124 28 -127 l22 -3 0 176
0 176 -32 -3 c-31 -3 -32 -5 -77 -135 -25 -73 -48 -133 -51 -133 -3 0 -26 61
-50 135 l-44 135 -38 0 -38 0 0 -175z"/>
<path d="M3097 1063 c-4 -3 -7 -15 -7 -25 0 -13 7 -18 25 -18 20 0 25 5 25 25
0 18 -5 25 -18 25 -10 0 -22 -3 -25 -7z"/>
<path d="M3420 1045 c0 -24 3 -25 55 -25 l55 0 0 -150 0 -150 25 0 25 0 0 150
0 149 58 3 c50 3 57 6 60 26 3 22 3 22 -137 22 l-141 0 0 -25z"/>
<path d="M1974 970 c-41 -16 -64 -59 -64 -117 0 -95 35 -135 117 -135 51 0 91
23 104 60 7 19 5 22 -19 22 -16 0 -32 -8 -40 -20 -18 -29 -76 -27 -96 2 -30
43 -22 48 75 48 l92 0 -7 41 c-4 22 -13 51 -21 63 -27 41 -90 57 -141 36z m95
-56 c11 -15 18 -30 15 -35 -3 -5 -32 -9 -65 -9 -65 0 -76 13 -39 50 28 28 64
25 89 -6z"/>
<path d="M2874 957 c-31 -27 -35 -68 -9 -97 9 -10 39 -24 65 -30 58 -14 79
-33 60 -55 -20 -24 -77 -19 -95 9 -17 25 -55 26 -55 1 0 -66 146 -92 192 -35
42 51 13 98 -75 124 -62 18 -75 30 -57 51 18 22 67 19 82 -5 13 -20 58 -28 58
-11 0 63 -111 95 -166 48z"/>
<path d="M3255 971 c-79 -33 -89 -201 -14 -241 30 -17 96 -15 123 3 24 16 53
77 36 77 -4 0 -15 3 -24 6 -10 4 -16 1 -16 -8 0 -23 -33 -48 -63 -48 -36 0
-57 34 -57 92 0 81 56 115 104 63 28 -30 56 -33 56 -6 0 48 -87 85 -145 62z"/>
<path d="M3786 973 c-4 -4 -22 -6 -41 -5 l-35 3 0 -126 0 -125 25 0 c25 0 25
2 25 78 0 93 15 127 53 127 31 -1 48 32 26 46 -17 11 -43 12 -53 2z"/>
<path d="M3914 961 c-50 -31 -68 -108 -40 -175 19 -47 51 -66 109 -66 40 0 53
5 78 29 16 16 29 34 29 40 0 19 -49 12 -60 -9 -11 -20 -63 -28 -86 -12 -11 7
-34 45 -34 56 0 3 41 6 90 6 l90 0 0 40 c0 86 -101 138 -176 91z m106 -41 c37
-37 26 -50 -39 -50 -33 0 -63 4 -66 10 -9 14 40 60 65 60 11 0 29 -9 40 -20z"/>
<path d="M4188 964 c-76 -40 -78 -196 -4 -233 23 -11 45 -14 89 -12 28 1 87
49 87 70 0 19 -46 12 -65 -9 -10 -11 -31 -20 -47 -20 -30 0 -68 30 -68 55 0
12 17 15 90 15 l90 0 0 33 c0 89 -93 144 -172 101z m100 -44 c40 -37 29 -50
-43 -50 -71 0 -79 9 -43 47 27 28 57 29 86 3z"/>
<path d="M2590 865 c0 -92 3 -108 20 -125 27 -27 90 -30 119 -7 11 9 15 9 18
0 3 -7 13 -13 24 -13 18 0 19 8 19 125 0 118 -1 125 -20 125 -18 0 -20 -7 -20
-63 0 -70 -13 -127 -32 -139 -7 -4 -25 -8 -41 -8 -37 0 -47 29 -47 131 0 72
-2 79 -20 79 -19 0 -20 -7 -20 -105z"/>
<path d="M3090 845 l0 -125 25 0 25 0 0 125 0 125 -25 0 -25 0 0 -125z"/>
</g>
</svg>
