<?xml version="1.0" encoding="UTF-8"?>
<!--
  Knockout horizontal lockup for dark UIs: light ink (#fff) symbol + wordmark only.
  No background rectangle — area outside the paths is transparent.
-->
<svg xmlns="http://www.w3.org/2000/svg"
  viewBox="0 0 1920 600"
  fill="none"
  preserveAspectRatio="xMidYMid meet"
  role="img"
  aria-label="The Music Tree horizontal lockup for dark backgrounds">
<g transform="translate(0,600) scale(0.1,-0.1)" fill="#ffffff" stroke="none">
<path d="M16675 5918 c-4 -18 -16 -48 -26 -66 -14 -24 -19 -53 -19 -108 0 -41
-7 -100 -14 -132 -8 -31 -19 -77 -24 -102 l-9 -45 -21 45 c-17 35 -22 64 -22
133 0 66 -3 88 -12 85 -7 -3 -15 -15 -16 -29 -2 -13 -8 -28 -12 -33 -5 -5 -6
26 -3 68 5 66 4 76 -10 76 -10 0 -20 -13 -25 -32 l-9 -33 -13 40 c-16 50 -28
65 -51 65 -24 0 -25 -27 -4 -97 9 -30 24 -57 38 -66 26 -16 67 -94 67 -126 0
-16 -6 -21 -25 -21 -32 0 -34 -33 -2 -60 78 -68 96 -89 117 -145 31 -81 31
-211 1 -310 -13 -45 -21 -97 -21 -147 0 -121 -55 -356 -86 -365 -7 -2 -13 28
-18 87 -4 50 -18 134 -32 188 -28 107 -27 122 12 267 27 101 30 148 11 185
-25 49 -63 36 -99 -34 -16 -32 -19 -52 -15 -98 3 -32 1 -56 -4 -53 -15 10 -31
87 -31 155 0 62 4 75 57 175 46 89 56 114 53 149 -2 32 -7 41 -22 41 -14 0
-24 -17 -43 -74 -25 -77 -69 -161 -84 -161 -5 0 -9 25 -9 56 0 63 -18 145 -34
156 -26 18 -29 3 -23 -112 3 -66 2 -120 -2 -120 -13 0 -37 32 -61 80 -26 51
-29 107 -16 274 8 92 7 108 -5 104 -20 -6 -38 -66 -51 -174 -11 -89 -13 -92
-32 -82 -12 6 -36 28 -55 50 -18 21 -51 48 -72 59 l-39 19 0 -20 c0 -30 28
-80 45 -80 8 0 15 -6 15 -14 0 -8 23 -28 50 -46 38 -25 68 -58 121 -136 39
-57 75 -104 80 -104 10 0 33 -40 26 -46 -3 -3 -20 4 -38 15 -42 26 -49 26 -49
3 0 -11 23 -38 51 -62 65 -55 104 -108 125 -173 9 -29 22 -57 29 -63 19 -15
63 -172 76 -273 15 -114 7 -251 -20 -321 -26 -67 -71 -134 -93 -138 -23 -4
-54 33 -88 103 -16 34 -56 90 -90 125 -76 80 -80 88 -80 144 0 50 60 229 87
259 11 11 19 41 21 82 4 61 3 63 -17 58 -26 -7 -33 -19 -55 -101 -9 -34 -24
-79 -32 -99 l-16 -36 -24 29 -25 29 5 -35 c3 -19 8 -49 12 -67 7 -38 -12 -103
-32 -103 -8 0 -14 4 -14 9 0 6 -25 34 -56 62 -30 29 -75 82 -99 118 -37 57
-45 77 -54 146 -15 118 -21 224 -11 200 8 -20 9 -20 9 1 2 56 22 84 72 101 27
10 49 23 49 30 0 7 7 13 15 13 19 0 45 51 45 90 0 38 -16 39 -65 0 -21 -16
-39 -30 -40 -30 -2 0 4 19 12 42 8 23 13 55 11 72 -3 27 -7 31 -32 31 -49 0
-69 -39 -74 -145 -3 -68 -8 -90 -18 -90 -21 0 -34 43 -34 110 0 70 20 127 67
192 31 43 34 53 31 105 -3 50 -6 58 -24 61 -28 4 -54 -50 -55 -115 -1 -63 -17
-106 -18 -48 -1 56 -19 113 -42 136 -27 27 -41 20 -57 -26 -11 -32 -10 -47 8
-109 11 -40 20 -90 20 -112 l0 -39 -29 50 c-32 56 -106 128 -124 122 -19 -6
-21 -46 -3 -53 9 -3 16 -13 16 -22 0 -8 27 -51 61 -96 34 -44 74 -106 90 -138
27 -54 29 -65 29 -178 0 -66 -3 -120 -6 -120 -3 0 -36 20 -73 44 -70 45 -119
102 -165 193 -14 29 -35 57 -47 64 -20 10 -21 9 -17 -45 l3 -56 -32 6 c-18 3
-33 2 -33 -3 0 -12 38 -47 70 -63 13 -7 47 -34 75 -59 62 -58 161 -132 167
-125 10 10 107 -87 102 -101 -5 -12 7 -34 51 -94 19 -27 101 -106 180 -177 61
-54 93 -93 135 -163 30 -51 70 -109 87 -127 37 -39 63 -116 63 -182 0 -25 -13
-83 -29 -131 -16 -47 -43 -132 -60 -188 -18 -57 -35 -103 -40 -103 -4 0 -28
18 -53 39 -45 40 -91 116 -124 206 -10 28 -31 74 -47 103 l-29 52 27 73 c14
39 29 102 32 138 5 57 3 67 -12 73 -25 9 -44 -21 -45 -68 0 -47 -20 -166 -27
-166 -8 0 -23 20 -110 149 l-78 114 -6 141 c-8 175 -30 266 -65 266 -19 0 -24
-7 -30 -35 -3 -20 -4 -60 -2 -90 3 -30 1 -55 -3 -55 -5 0 -18 19 -30 43 -12
23 -25 44 -29 47 -4 3 -10 36 -13 73 -9 97 -45 147 -106 147 -37 0 -42 -66 -8
-128 40 -75 179 -254 204 -263 15 -5 21 -71 8 -76 -17 -5 -157 90 -197 135
-21 23 -48 63 -62 89 -13 26 -47 86 -75 133 -31 52 -51 97 -51 115 0 17 11 63
25 104 18 53 28 112 35 205 6 72 13 144 16 160 6 26 5 27 -13 17 -13 -6 -27
-34 -39 -76 -10 -36 -24 -65 -30 -65 -12 0 -65 112 -104 218 -21 59 -32 72
-44 54 -3 -5 6 -52 20 -106 14 -54 23 -100 22 -102 -2 -2 -26 8 -53 21 -51 25
-85 32 -85 17 0 -16 34 -39 117 -81 59 -29 87 -49 98 -70 19 -38 19 -51 0 -51
-12 0 -15 -14 -16 -62 0 -74 -13 -150 -22 -128 -3 8 -8 41 -11 72 -3 31 -12
74 -19 95 -11 36 -15 38 -52 38 l-40 0 0 -47 c0 -41 -2 -45 -15 -33 -57 51
-81 -13 -31 -82 17 -23 45 -50 63 -59 66 -34 106 -74 143 -146 21 -40 43 -79
49 -87 6 -8 18 -40 27 -72 16 -57 15 -59 -3 -59 -40 0 -252 54 -271 69 -60 48
-76 74 -127 211 -48 129 -54 165 -40 226 8 32 10 73 6 108 -7 49 -11 58 -33
67 -14 5 -28 7 -32 4 -10 -11 -13 -145 -3 -158 6 -6 13 -33 17 -59 6 -37 4
-48 -6 -48 -24 1 -105 133 -174 283 -18 39 -35 61 -52 68 -13 5 -25 9 -26 9
-2 0 -1 -19 1 -42 3 -28 16 -59 38 -91 44 -61 43 -73 -3 -44 -59 37 -83 42
-83 18 0 -21 37 -53 108 -92 90 -49 226 -245 257 -371 l7 -28 -58 -1 c-91 -2
-106 1 -151 27 l-43 25 0 -26 c0 -16 12 -38 29 -55 28 -28 31 -29 127 -27 l99
2 114 -63 c62 -35 141 -70 175 -78 316 -79 407 -119 474 -209 45 -62 82 -126
82 -145 0 -17 -29 -11 -73 14 -23 14 -78 35 -122 47 -44 12 -122 41 -173 66
-69 33 -103 43 -130 41 -33 -3 -37 -6 -40 -34 -4 -39 35 -89 81 -103 18 -5 70
-12 117 -16 60 -5 104 -15 150 -35 36 -15 76 -31 90 -35 34 -10 135 -62 179
-91 43 -28 84 -91 111 -169 19 -55 26 -115 15 -115 -15 0 -85 42 -85 50 0 6
-8 10 -18 10 -10 0 -22 3 -25 7 -4 3 -28 14 -55 23 -26 9 -67 29 -91 44 -48
30 -56 29 -47 -8 8 -33 92 -100 170 -135 107 -49 275 -191 312 -263 75 -148
132 -549 114 -808 -9 -124 -28 -237 -41 -246 -20 -12 -92 42 -195 148 -127
130 -144 155 -174 258 -12 41 -44 129 -70 195 -26 66 -57 158 -69 205 -39 150
-62 212 -133 353 -77 154 -77 156 -23 261 14 27 25 62 25 78 0 37 -25 96 -52
125 -22 24 -48 31 -48 13 0 -5 -6 -10 -13 -10 -20 0 -47 -65 -47 -112 0 -28
12 -66 36 -115 41 -82 38 -100 -14 -82 -35 12 -89 79 -122 150 -11 24 -24 51
-28 59 -5 8 -20 36 -33 62 -13 26 -59 92 -101 148 -62 81 -78 110 -84 148 -10
66 -30 120 -60 159 -32 43 -70 45 -85 6 -17 -45 -3 -91 46 -150 61 -75 60 -87
-8 -64 -84 29 -131 57 -170 100 -50 55 -74 106 -98 206 -41 173 -83 274 -126
303 -22 14 -23 13 -23 -17 0 -17 11 -59 25 -94 14 -34 28 -82 31 -107 l5 -45
-51 55 c-61 65 -115 167 -160 303 -29 89 -50 121 -67 104 -3 -4 0 -27 7 -52 7
-25 10 -49 6 -52 -3 -4 -21 8 -39 25 -66 64 -65 23 1 -58 26 -32 68 -95 94
-139 l47 -81 -37 15 c-20 9 -39 20 -40 26 -2 5 -15 23 -29 40 -20 23 -28 27
-39 18 -10 -8 -14 -8 -14 0 0 15 -54 41 -85 41 -31 0 -31 -8 -2 -51 32 -48 73
-72 172 -103 67 -21 97 -37 139 -74 30 -26 66 -55 80 -65 23 -16 74 -97 61
-97 -2 0 -28 14 -56 31 -57 36 -139 51 -139 27 0 -27 95 -98 131 -98 28 0 100
-44 121 -72 l22 -31 -115 6 c-134 7 -210 29 -253 72 -17 17 -46 68 -65 113
-59 144 -149 186 -111 52 l10 -35 -28 35 c-44 57 -61 70 -87 70 -21 0 -25 -5
-25 -29 0 -46 16 -78 48 -97 18 -10 28 -23 25 -31 -3 -7 1 -20 8 -29 15 -18
127 -76 182 -94 68 -22 30 -47 -73 -49 -48 -1 -63 4 -115 38 -38 25 -71 57
-90 87 -41 66 -74 104 -90 104 -18 0 -3 -54 22 -83 15 -17 9 -16 -32 7 -27 16
-55 35 -62 43 -11 14 -14 14 -27 0 -9 -9 -16 -26 -16 -39 0 -50 66 -88 153
-88 20 0 37 -4 37 -10 0 -5 -24 -10 -54 -10 -64 0 -86 -7 -86 -26 0 -11 19
-14 88 -14 48 0 97 -3 110 -6 23 -7 23 -7 2 -21 -44 -31 -23 -36 128 -28 192
9 210 9 457 -2 l210 -8 86 -48 c144 -78 185 -124 258 -287 25 -55 88 -139 166
-220 101 -105 164 -210 126 -210 -6 0 -66 23 -135 50 -69 28 -129 50 -134 50
-18 0 -110 98 -164 175 -31 44 -68 91 -82 104 l-26 24 0 -24 c1 -13 7 -41 14
-61 8 -21 10 -38 6 -38 -5 0 -27 23 -49 51 l-41 52 0 106 c0 89 -3 111 -20
139 -15 24 -27 32 -43 30 -20 -3 -22 -10 -25 -65 -2 -39 3 -75 13 -98 8 -21
15 -41 15 -46 0 -5 -33 25 -74 66 -88 90 -111 96 -103 28 4 -35 1 -50 -10 -58
-14 -10 -14 -15 1 -43 19 -38 37 -48 134 -78 66 -20 80 -29 126 -80 82 -91 83
-88 -22 -80 -146 11 -239 46 -362 136 -73 54 -126 114 -142 163 -6 17 -14 34
-18 37 -3 3 -16 21 -28 42 -23 37 -35 45 -90 58 -28 7 -35 5 -47 -14 -17 -26
-11 -77 13 -114 8 -13 40 -36 71 -52 33 -17 87 -60 131 -104 l74 -76 -62 0
c-124 0 -269 82 -350 198 -53 75 -114 142 -130 142 -16 0 14 -97 45 -143 13
-22 23 -41 20 -43 -2 -2 -33 15 -69 40 -114 78 -183 79 -124 1 29 -37 74 -65
151 -91 26 -8 101 -42 167 -75 66 -32 129 -59 139 -59 11 0 19 -6 19 -13 0 -8
-32 -20 -82 -31 -82 -19 -84 -19 -203 3 -66 12 -125 21 -132 21 -6 0 -35 23
-65 51 -60 59 -136 99 -190 99 -53 0 -68 -9 -68 -39 0 -36 51 -67 148 -90 l77
-18 -65 -7 c-92 -11 -130 -29 -130 -60 0 -60 101 -75 201 -30 33 15 59 33 59
41 0 9 7 12 18 9 9 -2 50 -10 90 -17 40 -7 69 -15 65 -19 -4 -4 -30 -13 -56
-20 -34 -9 -57 -23 -77 -49 -51 -61 -36 -91 47 -91 66 0 96 15 149 73 36 40
52 48 169 87 126 42 130 43 229 37 56 -4 146 -18 201 -31 55 -14 162 -35 237
-46 157 -24 231 -46 291 -89 23 -17 82 -47 131 -67 101 -40 159 -76 203 -128
24 -27 37 -58 57 -143 33 -139 33 -157 4 -148 -13 4 -38 16 -56 26 -19 11 -63
22 -105 25 -121 11 -175 44 -269 169 -66 86 -91 107 -201 164 -103 54 -149 63
-213 39 -26 -9 -40 -8 -76 5 -63 25 -71 23 -54 -12 21 -39 111 -97 185 -117
51 -14 72 -16 119 -7 78 15 111 7 131 -30 30 -55 91 -126 121 -142 17 -9 30
-21 30 -27 0 -6 10 -23 23 -36 l22 -24 -80 5 c-44 3 -90 9 -102 12 -54 17 -7
-53 50 -74 16 -6 95 -11 178 -11 124 0 157 -3 201 -20 62 -23 123 -80 139
-129 7 -20 22 -49 35 -66 30 -40 58 -111 50 -130 -7 -18 -62 -20 -172 -4 -101
14 -171 41 -231 88 -26 21 -93 66 -148 99 -109 66 -171 119 -246 213 -54 68
-111 117 -145 125 -49 12 -48 -3 2 -57 27 -30 70 -79 94 -109 25 -30 57 -67
72 -82 16 -14 28 -31 28 -36 0 -11 -74 7 -140 35 -41 17 -159 91 -180 114 -8
9 -42 38 -75 65 -33 27 -62 51 -65 54 -23 25 -122 101 -150 116 -19 10 -39 25
-43 32 -9 13 -47 16 -84 6 -32 -9 -31 -56 2 -82 26 -20 41 -27 145 -60 36 -12
51 -19 34 -16 -51 8 -84 -4 -84 -32 0 -28 10 -31 124 -38 68 -4 82 -8 107 -32
16 -15 29 -31 29 -35 0 -5 -23 -9 -52 -11 -56 -3 -74 -22 -36 -37 13 -5 57
-19 98 -32 41 -12 96 -33 123 -46 26 -13 47 -20 47 -16 0 3 11 -4 25 -17 14
-13 25 -29 25 -36 0 -43 -137 -62 -188 -25 -54 38 -132 71 -233 99 -98 27
-248 93 -250 110 -12 170 -24 196 -114 238 -78 37 -85 34 -85 -33 0 -79 24
-117 96 -149 38 -17 61 -35 75 -59 12 -19 48 -54 82 -78 l60 -42 -97 -3 c-125
-4 -156 10 -274 122 -87 82 -121 104 -108 70 3 -9 6 -22 6 -29 0 -7 16 -34 35
-59 19 -26 35 -48 35 -51 0 -3 -18 -5 -40 -5 -22 0 -40 5 -40 10 0 12 -15 31
-89 109 -47 50 -64 61 -89 61 -49 0 -42 -34 21 -98 l52 -53 -45 20 c-44 20
-130 29 -130 14 1 -19 64 -75 98 -87 21 -8 104 -17 185 -21 119 -6 152 -11
170 -25 l21 -18 -47 -22 c-51 -24 -62 -34 -52 -50 4 -6 17 -4 35 5 44 23 56
18 26 -11 -25 -26 -29 -27 -99 -19 -39 4 -82 8 -95 7 -37 0 -81 -23 -88 -45
-9 -29 36 -67 81 -67 36 0 206 81 289 137 45 31 86 43 86 25 0 -4 -25 -27 -55
-50 -56 -44 -93 -88 -82 -99 14 -13 58 10 143 74 133 101 156 109 261 95 65
-9 109 -22 182 -57 67 -31 110 -45 139 -45 23 0 42 -3 42 -7 0 -12 -40 -46
-85 -76 -73 -47 -115 -93 -115 -126 0 -34 15 -39 66 -21 30 10 50 31 123 126
44 58 185 167 236 184 49 16 102 -1 175 -58 34 -26 73 -54 88 -62 56 -34 55
-70 -5 -96 -67 -28 -177 -65 -212 -69 -37 -5 -133 -55 -139 -73 -2 -7 20 -12
62 -14 l66 -3 -75 -49 c-41 -27 -75 -54 -75 -59 0 -14 -147 -2 -190 16 -19 8
-50 17 -68 21 -54 10 -36 -24 31 -60 l59 -31 -44 -6 c-61 -8 -107 4 -194 54
-53 30 -85 57 -109 91 -50 69 -124 84 -207 42 -33 -17 -35 -35 -7 -80 31 -50
53 -58 159 -59 l96 0 67 -44 c37 -24 67 -45 67 -48 0 -7 -143 -70 -175 -77
-17 -3 -79 -10 -138 -15 -79 -6 -113 -12 -125 -24 -15 -16 -14 -17 23 -18 22
0 49 -4 59 -8 17 -6 15 -9 -12 -20 -26 -11 -32 -19 -32 -43 l0 -29 58 6 c70 9
100 21 180 73 94 61 303 141 370 142 24 0 -40 -100 -94 -149 -63 -56 -97 -110
-92 -148 3 -25 7 -28 47 -31 36 -3 48 1 73 25 37 35 63 86 71 139 12 77 53
151 99 180 24 15 48 32 53 39 6 6 29 23 51 37 39 25 42 26 36 6 -3 -11 -20
-35 -38 -54 -48 -48 -78 -110 -78 -163 -1 -43 1 -46 27 -49 56 -7 117 87 117
179 0 51 63 173 106 205 18 14 31 30 29 35 -3 4 18 21 47 36 l53 28 200 -1
c110 0 227 -6 259 -12 62 -12 166 -55 177 -73 3 -6 30 -27 60 -48 63 -43 144
-146 193 -246 20 -38 49 -124 66 -190 29 -111 31 -129 27 -240 -4 -92 -12
-146 -36 -230 -17 -60 -38 -165 -46 -233 -24 -189 -67 -285 -179 -398 -35 -35
-70 -64 -77 -64 -8 0 -34 -19 -59 -43 -149 -140 -690 -317 -841 -275 -24 7
-26 5 -22 -16 4 -18 23 -32 84 -61 43 -20 83 -34 88 -31 17 11 272 46 333 46
56 0 58 -1 48 -21 -6 -11 -20 -23 -30 -27 -10 -4 -19 -11 -19 -17 -1 -5 -12
-10 -25 -11 -36 -2 -91 -37 -91 -60 0 -28 82 -45 100 -21 7 10 36 24 64 33 28
8 50 18 47 22 -6 11 251 130 330 153 82 24 244 38 244 21 0 -28 -26 -61 -81
-102 -64 -47 -68 -51 -136 -89 -24 -14 -43 -31 -43 -38 0 -7 -6 -13 -14 -13
-19 0 -113 -86 -103 -96 11 -11 121 -19 114 -7 -6 10 93 60 248 124 122 50
232 114 309 180 75 64 107 66 183 9 29 -23 53 -47 53 -54 0 -7 10 -17 23 -23
12 -6 49 -35 82 -64 33 -30 93 -74 133 -98 39 -24 72 -49 72 -57 0 -20 16 -26
54 -18 l35 6 -17 27 c-9 14 -76 85 -149 157 -87 86 -133 139 -133 153 0 26 12
26 118 1 46 -11 90 -20 99 -20 19 0 256 -105 293 -130 14 -10 47 -25 74 -35
27 -11 51 -27 53 -36 5 -16 8 -16 45 -3 21 7 43 16 48 19 5 3 -34 29 -88 57
-53 28 -115 63 -137 77 l-40 26 51 3 c29 2 87 -6 130 -17 44 -11 108 -25 144
-31 108 -18 120 -21 114 -31 -3 -5 -3 -9 1 -9 7 0 185 89 185 93 0 1 -19 3
-42 5 -67 4 -422 98 -513 136 -387 158 -596 433 -598 791 -1 220 69 366 288
594 152 158 220 193 490 248 103 21 204 48 257 70 122 49 196 56 319 33 145
-28 162 -40 245 -167 85 -132 163 -197 227 -191 28 3 32 6 30 32 -3 38 -27 62
-94 97 -47 23 -69 45 -133 129 -43 56 -75 104 -72 107 7 8 93 -25 109 -41 7
-7 29 -15 50 -19 21 -3 73 -20 117 -36 51 -20 113 -35 177 -42 71 -7 104 -16
118 -29 42 -39 112 -50 174 -29 34 12 41 38 16 59 -9 8 -62 16 -128 20 -62 4
-150 17 -197 29 -130 33 -310 95 -310 106 0 6 29 22 63 38 82 37 171 44 264
23 103 -23 123 -22 123 8 0 21 -8 28 -55 42 -30 10 -55 23 -55 29 0 19 72 47
135 52 33 3 87 0 120 -7 33 -7 73 -15 88 -17 33 -6 117 15 117 30 0 5 11 20
25 33 44 41 34 46 -82 41 -60 -2 -119 -7 -133 -11 -27 -7 -15 -1 137 70 94 45
126 75 143 134 8 29 7 30 -23 30 -38 0 -63 -15 -138 -86 -53 -49 -195 -132
-207 -120 -15 16 54 100 140 169 35 27 50 48 58 79 14 48 6 88 -17 88 -22 0
-81 -38 -93 -61 -12 -21 -40 -26 -40 -7 0 6 -3 8 -7 4 -4 -4 -10 -36 -14 -71
-5 -56 -12 -72 -50 -122 -71 -92 -216 -185 -361 -232 -21 -7 -38 -19 -38 -27
0 -8 -7 -14 -15 -14 -21 0 -19 7 11 44 14 17 37 46 52 64 67 84 83 99 119 118
93 47 121 80 61 72 -18 -3 -42 -9 -53 -13 -13 -6 -5 8 22 39 45 51 59 95 48
146 -10 48 -41 54 -93 18 -55 -38 -80 -89 -93 -190 -8 -62 -16 -88 -35 -110
-13 -16 -24 -34 -24 -39 0 -5 -15 -24 -33 -42 -19 -17 -44 -47 -56 -65 -40
-58 -70 -67 -220 -67 -99 0 -135 3 -138 13 -3 7 -25 12 -59 12 l-55 0 33 47
c57 82 111 129 154 137 89 17 154 78 154 145 0 29 -2 30 -32 25 -68 -11 -83
-16 -101 -31 -25 -23 -30 -12 -12 30 8 20 15 46 15 57 0 59 -60 -15 -134 -165
-59 -121 -169 -240 -264 -287 -62 -31 -74 -33 -189 -37 -71 -2 -123 1 -123 6
0 19 33 119 50 153 10 19 38 56 62 82 40 43 50 49 142 72 54 14 106 26 116 26
10 0 41 8 69 17 64 20 101 61 101 109 0 33 -1 34 -42 34 -46 0 -70 -12 -142
-73 -41 -35 -149 -77 -163 -63 -7 7 15 44 82 136 76 103 95 140 95 180 0 49
-23 35 -58 -35 l-32 -65 -49 0 c-48 0 -51 -1 -74 -42 -14 -24 -34 -75 -46
-114 -11 -39 -28 -77 -36 -84 -8 -7 -15 -19 -15 -26 0 -8 -6 -14 -14 -14 -8 0
-17 -8 -20 -17 -22 -57 -124 -218 -156 -246 -43 -36 -163 -86 -219 -91 -27 -2
-65 -22 -132 -68 -52 -36 -99 -67 -105 -69 -6 -2 -42 -39 -79 -81 -38 -43 -74
-78 -80 -78 -16 0 -59 99 -80 187 -25 101 -17 304 14 384 45 118 159 251 287
337 112 76 174 92 386 100 174 7 208 15 208 46 0 9 -18 10 -65 5 -42 -4 -88
-2 -128 7 -147 32 -309 6 -412 -64 -33 -23 -96 -75 -140 -117 -73 -69 -117
-97 -132 -82 -12 12 21 140 52 205 43 89 103 152 202 211 147 87 395 152 503
131 95 -19 185 -64 235 -119 28 -32 139 -109 180 -127 19 -8 62 -21 95 -28 56
-13 61 -13 58 2 -2 9 -32 34 -68 54 -100 59 -220 139 -220 148 0 17 315 35
370 21 30 -8 31 -9 9 -10 -46 -2 -40 -14 15 -32 73 -22 128 -56 201 -123 63
-59 96 -75 160 -79 38 -2 40 0 43 29 4 36 -19 54 -123 94 -33 13 -76 33 -95
45 l-35 20 49 3 c51 3 169 -27 215 -55 14 -9 51 -41 82 -71 47 -45 64 -55 100
-59 59 -6 99 10 99 40 0 43 -58 73 -177 92 -24 4 -43 11 -43 17 0 15 143 4
148 -11 2 -6 25 -11 53 -11 41 0 49 3 49 18 0 26 -27 48 -76 62 -33 10 -55 9
-118 -4 -97 -20 -152 -21 -159 -2 -8 19 -93 38 -211 45 -83 5 -101 9 -104 23
-2 12 7 18 40 23 49 8 77 21 144 66 25 18 56 34 68 36 11 1 46 8 77 14 78 16
291 -18 387 -62 70 -32 180 -62 194 -53 4 3 8 12 8 19 0 8 11 22 25 31 54 36
37 97 -31 110 -18 3 -88 1 -156 -6 -118 -11 -127 -10 -184 10 -40 15 -92 24
-161 27 -59 3 -100 10 -97 15 3 5 29 19 58 32 28 13 67 39 86 60 33 34 54 50
148 110 20 13 66 29 102 35 86 14 186 64 205 101 8 16 15 31 15 35 0 13 -37 2
-93 -29 -68 -37 -165 -72 -174 -62 -10 10 8 22 67 47 30 12 60 27 65 34 6 6
20 17 33 24 43 23 84 121 51 121 -29 0 -83 -37 -125 -86 -25 -30 -48 -53 -50
-51 -2 2 9 28 26 58 42 76 40 159 -5 159 -45 0 -84 -76 -85 -168 0 -70 -32
-132 -107 -204 -75 -74 -102 -93 -137 -102 -17 -4 -35 -15 -42 -24 -35 -48
-18 19 40 155 14 34 29 82 33 108 l6 46 -29 -13 c-16 -6 -37 -18 -47 -27 -23
-19 -47 -102 -47 -163 0 -107 -15 -136 -122 -234 -13 -12 -30 -30 -38 -41 -17
-23 -71 -53 -94 -53 -8 0 -24 -10 -35 -22 -15 -16 -36 -23 -78 -26 l-58 -4 90
85 c75 72 86 86 67 87 -39 0 -84 -27 -142 -86 -78 -80 -121 -97 -224 -90 -224
18 -312 62 -243 122 66 58 106 76 218 95 111 20 156 36 194 69 11 9 36 20 54
24 80 15 114 29 152 63 40 36 50 69 24 79 -8 4 -15 18 -15 34 0 26 -1 27 -40
20 -44 -8 -99 -46 -132 -91 -46 -62 -100 -85 -310 -133 -40 -9 -35 9 17 60 46
44 58 74 30 74 -9 0 -19 -8 -23 -17 -5 -12 -9 -1 -12 32 -4 42 -9 51 -26 53
-28 4 -57 -33 -84 -106 -45 -124 -51 -138 -73 -166 -75 -99 -107 -112 -299
-121 l-116 -6 37 73 c20 40 50 87 67 104 37 39 104 153 104 176 0 30 -34 20
-58 -18 -13 -20 -80 -110 -150 -201 -127 -166 -177 -213 -227 -213 -24 0 -25
3 -25 55 0 62 29 157 67 222 45 77 122 131 277 193 50 20 133 63 184 96 149
94 168 104 239 124 37 11 111 24 164 30 78 8 110 16 154 40 47 25 67 30 138
32 45 1 108 -2 139 -6 49 -8 59 -6 64 8 5 13 23 16 109 16 63 0 106 4 110 11
11 17 0 21 -80 29 -42 4 -79 10 -82 14 -16 16 23 29 113 36 55 4 120 13 146
20 26 7 68 9 95 6 169 -21 213 -17 213 19 0 12 -18 15 -87 16 -49 0 -97 4
-107 8 -34 13 25 48 106 62 45 8 79 20 92 33 20 20 20 20 -6 28 -18 6 -41 3
-78 -11 l-53 -20 22 23 c12 12 18 26 14 29 -4 4 9 36 28 72 33 61 35 83 7 72
-8 -2 -34 -42 -58 -87 -67 -124 -167 -205 -267 -216 -41 -4 -45 -3 -29 8 86
59 116 90 116 118 0 28 -3 30 -36 30 -38 0 -79 -34 -148 -120 l-27 -35 21 43
c12 24 24 66 27 93 6 47 8 51 52 72 47 24 91 76 91 108 0 32 -46 23 -90 -17
l-40 -36 0 27 c0 20 -4 26 -17 23 -14 -3 -19 -18 -25 -76 -8 -82 -63 -230
-100 -270 -29 -31 -94 -62 -133 -61 l-30 0 27 20 c23 17 88 109 88 124 0 3
-11 5 -23 5 -28 0 -99 -49 -122 -83 -8 -13 -57 -45 -108 -71 -71 -36 -110 -49
-174 -58 -45 -7 -85 -9 -88 -6 -7 6 12 49 25 58 4 3 19 28 33 56 35 68 68 95
179 140 88 36 98 43 193 140 87 90 108 106 159 124 75 25 142 65 156 90 19 35
-15 35 -88 2 -100 -46 -122 -53 -122 -41 0 6 19 49 42 96 32 67 52 93 92 125
50 40 75 71 76 96 0 15 -26 16 -43 2 -7 -6 -34 -26 -60 -46 l-48 -36 6 34 c8
47 25 171 25 186 0 29 -28 9 -49 -35 l-23 -48 -20 38 c-30 59 -43 43 -42 -49
1 -43 5 -107 9 -142 13 -114 -12 -198 -103 -339 -35 -52 -54 -73 -75 -78 -16
-4 -31 -13 -34 -21 -3 -8 -13 -14 -23 -14 -10 0 -43 -11 -75 -25 -32 -14 -59
-25 -60 -23 -2 2 2 19 9 38 8 26 29 47 86 86 42 28 76 59 78 70 2 10 10 36 18
57 18 47 18 47 -3 47 -10 0 -46 -28 -82 -62 -67 -66 -67 -65 -15 17 37 59 47
99 36 140 -15 55 -79 46 -107 -15 -15 -33 -22 -39 -40 -34 -22 6 -23 5 -27
-143 l-5 -148 -62 -128 c-74 -151 -106 -191 -186 -229 -115 -54 -123 -35 -26
66 64 66 120 157 121 196 0 8 12 51 26 95 26 81 34 161 20 203 -12 35 -55 26
-80 -17 -14 -25 -21 -64 -28 -165 -11 -158 -22 -183 -106 -251 -39 -31 -70
-67 -84 -95 -38 -76 -141 -169 -243 -219 -49 -24 -107 -46 -128 -49 l-39 -5 7
34 c22 110 59 255 66 259 4 3 26 57 49 120 72 200 91 243 131 304 21 32 39 60
39 62 0 16 -52 -2 -83 -27 -29 -24 -56 -67 -114 -188 -72 -149 -101 -224 -179
-463 -19 -59 -41 -113 -48 -120 -7 -7 -16 -27 -20 -43 -4 -17 -26 -70 -48
-120 -22 -49 -62 -151 -88 -227 -26 -75 -63 -158 -81 -186 -45 -66 -144 -172
-162 -172 -17 0 -30 29 -46 100 -7 30 -24 78 -38 106 -25 50 -26 56 -20 180 9
211 60 400 152 569 31 55 78 147 106 205 101 210 141 286 177 336 43 61 136
183 154 203 43 49 88 129 88 159 0 47 -21 41 -79 -24 l-50 -57 15 49 c32 106
-10 196 -64 137 -19 -21 -23 -35 -21 -87 1 -33 8 -82 15 -108 l13 -47 -50 -65
c-27 -36 -52 -66 -55 -66 -8 0 6 123 16 135 10 14 30 122 30 166 0 21 4 40 9
43 4 3 11 39 14 80 4 56 13 89 33 126 30 54 85 103 92 82 4 -14 51 -16 86 -2
34 12 68 81 64 128 l-3 37 -45 -3 c-68 -5 -77 -9 -108 -60 -16 -26 -50 -69
-76 -97 l-47 -50 5 58 c6 70 48 148 119 221 72 75 95 126 57 126 -11 0 -20 5
-20 10 0 13 -36 13 -60 0 -10 -5 -26 -33 -35 -62 -10 -29 -31 -78 -47 -108
l-30 -55 5 80 c4 83 38 185 61 185 20 0 106 100 106 122 0 18 -26 5 -76 -38
l-54 -45 7 78 c3 43 10 81 15 84 5 3 21 4 36 3 l27 -4 -25 9 c-14 5 -37 9 -52
10 -22 1 -28 -4 -33 -31z m1483 -956 c4 -50 -11 -97 -29 -87 -10 7 -13 138 -2
149 13 13 26 -13 31 -62z m542 -1561 c0 -16 -5 -18 -27 -12 -39 10 -41 31 -4
31 24 0 31 -4 31 -19z m-4553 -1386 c-36 -32 -57 -32 -57 0 0 23 4 25 43 25
l42 -1 -28 -24z"/>
<path d="M15935 5809 c-17 -26 16 -169 46 -206 18 -21 49 51 49 114 0 75 -15
103 -56 103 -18 0 -36 -5 -39 -11z"/>
<path d="M17224 5718 c-13 -26 -15 -48 -9 -121 4 -49 9 -97 12 -105 4 -10 1
-13 -8 -10 -9 3 -18 34 -26 92 -13 104 -17 116 -39 116 -14 0 -15 -7 -10 -37
15 -92 19 -253 6 -313 -7 -33 -15 -58 -18 -56 -2 3 -11 42 -18 87 -13 83 -33
126 -35 79 -3 -48 2 -116 12 -166 13 -67 2 -93 -61 -143 -62 -49 -83 -53 -74
-13 4 15 11 31 15 36 5 6 9 29 9 52 0 35 -4 44 -21 49 -14 5 -25 2 -30 -6 -13
-20 -11 -102 5 -199 12 -74 12 -93 0 -149 -19 -80 -32 -106 -105 -208 -40 -55
-59 -91 -59 -110 0 -36 84 -269 96 -266 17 5 15 82 -5 165 -14 62 -16 85 -8
90 7 4 54 17 106 29 51 12 101 29 111 39 9 9 20 36 24 59 9 59 72 119 184 175
102 51 152 90 152 117 0 26 -53 26 -79 0 -10 -10 -38 -25 -62 -34 -24 -8 -52
-18 -62 -22 -18 -7 -18 -6 1 31 11 22 45 67 76 102 59 66 90 116 83 135 -4 14
-81 -56 -137 -127 -24 -30 -47 -53 -52 -50 -4 3 -8 45 -8 94 l0 88 83 56 c80
53 167 134 167 156 0 5 -11 10 -24 10 -23 0 -65 -28 -164 -108 -23 -19 -45
-32 -48 -29 -10 9 24 100 55 149 15 24 51 67 80 96 28 28 51 58 51 67 0 31
-39 14 -85 -37 l-47 -53 6 50 c20 163 20 175 -3 175 -13 0 -26 -11 -37 -32z
m-81 -577 c2 -11 4 -73 3 -139 l-1 -120 -39 -56 c-21 -31 -41 -56 -45 -56 -3
0 -29 -17 -56 -38 -66 -50 -113 -77 -120 -70 -8 7 22 68 33 68 5 0 13 15 20
34 7 18 21 43 32 55 11 14 21 45 25 79 12 112 17 134 36 150 10 9 19 19 19 23
0 8 73 89 81 89 4 0 9 -9 12 -19z"/>
<path d="M15255 5550 c4 -25 12 -48 17 -51 5 -3 11 -23 15 -45 5 -35 17 -53
34 -54 5 0 -5 71 -19 134 -4 16 -18 36 -31 44 l-23 16 7 -44z"/>
<path d="M15180 5551 c0 -47 17 -79 50 -96 24 -13 30 -13 30 -2 0 28 -29 110
-42 118 -25 16 -38 9 -38 -20z"/>
<path d="M15370 5401 c0 -25 44 -77 81 -96 35 -19 99 -20 99 -2 0 30 -90 96
-152 111 -23 5 -28 3 -28 -13z"/>
<path d="M17714 5368 c-5 -7 -11 -49 -14 -93 -7 -89 -21 -115 -129 -237 -30
-34 -50 -63 -43 -66 16 -5 70 26 85 48 10 18 19 19 75 14 44 -5 70 -3 88 6 27
15 64 68 64 94 0 25 -58 20 -116 -9 -56 -28 -54 -28 -54 -17 0 5 40 35 89 66
85 55 102 74 116 124 6 19 3 22 -23 22 -19 0 -41 -10 -59 -27 l-29 -28 1 55
c0 49 -2 55 -22 58 -11 2 -25 -3 -29 -10z"/>
<path d="M17406 5197 c-22 -58 -20 -67 12 -67 29 0 92 34 92 49 0 5 3 16 6 25
4 11 0 16 -14 16 -12 0 -24 -4 -27 -10 -11 -18 -26 -10 -20 10 5 15 2 20 -13
20 -14 0 -24 -13 -36 -43z"/>
<path d="M14357 5103 c-13 -13 -7 -50 11 -66 21 -19 112 -35 112 -20 0 18 -41
63 -70 78 -32 17 -43 18 -53 8z"/>
<path d="M15984 5038 c-9 -28 -7 -143 4 -182 12 -44 29 -42 37 3 4 23 11 41
16 41 12 0 11 117 -1 141 -14 26 -47 24 -56 -3z"/>
<path d="M17205 4534 c-76 -39 -115 -101 -115 -182 0 -35 -6 -57 -21 -76 -33
-42 -12 -49 37 -12 25 19 62 40 82 47 75 24 132 87 132 144 0 27 -26 35 -48
13 -9 -9 -12 -2 -12 35 0 52 -7 56 -55 31z"/>
<path d="M18660 4493 c-19 -25 -20 -28 -5 -31 19 -4 45 15 45 34 0 25 -19 24
-40 -3z"/>
<path d="M17790 4070 c0 -14 99 -90 137 -106 57 -24 105 -18 148 19 l38 33
-28 22 c-30 24 -92 28 -172 13 -24 -5 -43 -5 -43 -1 0 9 -46 30 -65 30 -8 0
-15 -4 -15 -10z"/>
<path d="M18888 3770 l-53 -49 93 -1 c88 0 94 1 117 26 27 29 28 34 19 58 -5
12 -20 16 -64 16 -56 0 -61 -2 -112 -50z"/>
<path d="M1082 3598 l3 -83 223 -3 222 -2 0 -595 0 -595 95 0 95 0 0 595 0
595 223 2 222 3 3 83 3 82 -546 0 -546 0 3 -82z"/>
<path d="M2320 3000 l0 -680 90 0 90 0 0 318 c0 346 4 381 55 448 85 111 292
120 362 16 37 -56 43 -117 43 -457 l0 -325 86 0 85 0 -3 388 c-3 339 -6 393
-21 433 -26 67 -70 114 -140 149 -131 64 -300 48 -414 -40 l-53 -40 0 235 0
235 -90 0 -90 0 0 -680z"/>
<path d="M4450 3000 l0 -680 90 0 90 0 2 563 c3 540 4 560 20 512 9 -27 89
-264 178 -525 89 -261 167 -492 172 -512 l10 -38 88 0 88 0 12 33 c22 60 162
462 175 502 7 22 48 139 90 260 42 121 81 232 85 247 27 89 29 53 30 -489 l0
-553 90 0 90 0 0 680 0 681 -127 -3 -128 -3 -57 -165 c-31 -91 -102 -298 -158
-460 -55 -162 -117 -343 -137 -402 -20 -59 -39 -106 -41 -103 -3 2 -89 258
-192 567 l-188 563 -141 3 -141 3 0 -681z"/>
<path d="M8030 3580 l0 -100 85 0 85 0 0 100 0 100 -85 0 -85 0 0 -100z"/>
<path d="M9320 3595 l0 -85 225 0 225 0 0 -595 0 -595 90 0 90 0 0 595 0 595
225 0 225 0 0 85 0 85 -540 0 -540 0 0 -85z"/>
<path d="M18750 3641 c0 -5 15 -13 33 -17 17 -3 55 -20 83 -35 62 -35 124 -39
154 -9 26 26 25 35 -2 54 -17 12 -50 16 -145 16 -68 0 -123 -4 -123 -9z"/>
<path d="M14257 3413 c-12 -11 -8 -92 6 -126 10 -24 28 -39 67 -57 51 -24 52
-24 66 -5 17 23 18 104 1 126 -34 45 -120 83 -140 62z"/>
<path d="M3663 3315 c-122 -33 -228 -120 -281 -230 -33 -67 -62 -202 -62 -284
1 -146 58 -300 140 -382 172 -172 508 -169 667 4 48 53 86 118 98 168 6 26 5
27 -47 33 -29 4 -69 9 -88 12 -34 5 -37 3 -54 -37 -46 -103 -134 -160 -245
-158 -143 2 -247 98 -277 256 l-12 63 367 2 366 3 3 54 c4 75 -23 204 -60 278
-34 69 -111 149 -176 182 -97 50 -234 64 -339 36z m245 -161 c29 -14 65 -41
81 -61 30 -36 61 -118 61 -159 l0 -24 -269 0 -268 0 8 45 c17 92 87 181 164
209 67 24 163 20 223 -10z"/>
<path d="M7275 3314 c-148 -36 -234 -136 -235 -272 0 -73 19 -124 63 -170 54
-57 109 -79 370 -151 158 -43 184 -66 174 -150 -6 -56 -53 -104 -119 -121 -64
-18 -184 -8 -236 19 -43 22 -102 97 -102 130 -1 39 -13 43 -99 31 -49 -8 -81
-17 -81 -24 0 -33 45 -137 78 -180 48 -63 116 -100 222 -122 210 -42 415 29
489 171 39 76 42 177 7 249 -45 92 -95 118 -376 197 -180 51 -220 76 -220 138
0 80 67 120 198 121 117 0 178 -34 205 -112 7 -19 15 -35 20 -37 9 -4 149 10
159 15 8 5 -14 90 -35 129 -62 121 -288 186 -482 139z"/>
<path d="M8718 3311 c-211 -57 -317 -225 -318 -502 0 -164 32 -276 107 -366
121 -149 363 -195 540 -104 97 49 189 175 207 283 7 41 8 41 -106 54 -57 6
-57 6 -63 -22 -22 -96 -70 -164 -139 -195 -95 -43 -229 -11 -296 69 -53 64
-73 151 -68 305 3 126 5 136 36 199 49 101 123 148 231 148 73 0 106 -12 149
-53 36 -34 72 -96 72 -122 0 -18 34 -20 113 -4 49 10 57 15 57 34 0 40 -69
163 -112 199 -103 89 -258 118 -410 77z"/>
<path d="M10775 3311 c-38 -17 -79 -56 -117 -111 -17 -25 -17 -24 -17 43 l-1
68 -77 -3 -78 -3 -3 -492 -2 -493 89 0 90 0 3 323 c5 370 10 399 77 460 47 43
99 55 156 38 76 -23 76 -23 106 57 l27 73 -23 15 c-34 22 -112 44 -154 44 -20
0 -54 -9 -76 -19z"/>
<path d="M11422 3319 c-161 -31 -292 -163 -337 -339 -22 -84 -17 -309 9 -387
68 -211 292 -334 532 -294 166 28 305 148 339 292 7 29 19 25 -128 45 -42 5
-43 5 -56 -32 -21 -59 -94 -130 -153 -150 -61 -20 -157 -16 -210 10 -85 41
-152 142 -165 245 l-6 51 364 2 364 3 3 58 c4 79 -21 196 -59 273 -35 70 -111
149 -177 183 -90 46 -213 61 -320 40z m235 -169 c76 -44 133 -134 133 -210 l0
-30 -266 0 -267 0 6 45 c19 133 129 224 272 225 59 0 78 -5 122 -30z"/>
<path d="M12463 3315 c-177 -48 -291 -177 -328 -371 -52 -270 38 -505 228
-599 133 -65 284 -70 433 -14 79 30 164 114 204 203 17 36 30 70 30 75 0 5
-24 12 -52 15 -29 4 -69 9 -88 12 -34 5 -36 3 -64 -51 -51 -98 -126 -145 -233
-145 -149 0 -265 112 -286 278 l-5 42 364 0 364 0 1 28 c6 195 -42 335 -145
429 -110 99 -276 137 -423 98z m232 -154 c79 -35 136 -114 151 -209 l7 -42
-273 0 -272 0 6 35 c18 96 81 180 160 216 55 25 166 25 221 0z"/>
<path d="M6020 2925 c0 -368 1 -387 21 -442 45 -121 154 -186 314 -187 81 -1
97 2 156 30 36 18 84 51 107 75 l42 43 0 -62 0 -62 80 0 80 0 0 495 0 495 -84
0 -84 0 -5 -327 c-2 -212 -8 -341 -16 -364 -27 -85 -84 -138 -180 -165 -107
-32 -212 17 -245 113 -13 39 -16 103 -16 395 l0 348 -85 0 -85 0 0 -385z"/>
<path d="M8030 2815 l0 -495 85 0 85 0 0 495 0 495 -85 0 -85 0 0 -495z"/>
<path d="M14318 2627 c-39 -18 -77 -56 -99 -99 -10 -21 -19 -40 -19 -43 0 -3
32 -5 72 -5 l71 0 59 59 c76 76 75 95 -2 98 -30 1 -67 -4 -82 -10z"/>
<path d="M18515 2086 c8 -35 57 -109 87 -131 13 -8 37 -15 55 -15 28 0 33 3
33 24 0 28 -43 66 -105 91 -21 9 -47 26 -57 38 l-19 22 6 -29z"/>
</g>
</svg>
